# xmcd
#
# Track frame offsets:
#	150
#	18152
#	37634
#	54043
#	64262
#	73811
#	82543
#	92908
#	105149
#	114341
#	125990
#	134553
#	148514
#	163523
#	171518
#	185360
#	199755
#	214552
#	229059
#	239407
#	250338
#	264568
#	277174
#	291007
#	311427
#	320585
#
# Disc length: 4442 seconds
#
# Revision: 1
# Processed by: cddbd v1.5.2PL0 Copyright (c) Steve Scherf et al.
# Submitted via: audiograbber 1.83.01
#
DISCID=7111581a
DTITLE=Rangers - The Rangers
DYEAR=1969
DGENRE=Country
TTITLE0=Otec a syn
TTITLE1=Balicek karet
TTITLE2=Posledni vecere
TTITLE3=Ta zem je tva zem
TTITLE4=Male Baby
TTITLE5=Oh Shenandoah
TTITLE6=Pojd ven
TTITLE7=Zvednete kotvy
TTITLE8=Jehly, spicky, sochory a kuly
TTITLE9=Neplac mala
TTITLE10=Sing - sing
TTITLE11=Tricentova opera
TTITLE12=Smutny psani
TTITLE13=Plavci
TTITLE14=Colorado
TTITLE15=Tulak
TTITLE16=Zluty ptak
TTITLE17=Hrbitovni kviti
TTITLE18=Vim, vim
TTITLE19=Laska je vec kouzelna
TTITLE20=Julliane
TTITLE21=Kdo ma pravo
TTITLE22=Kriznik Bismarck
TTITLE23=Kopej hrob muj
TTITLE24=Kral silnic
TTITLE25=Par koni
EXTD=sender: Walker_CZ
EXTT0=
EXTT1=
EXTT2=
EXTT3=
EXTT4=
EXTT5=
EXTT6=
EXTT7=
EXTT8=
EXTT9=
EXTT10=
EXTT11=
EXTT12=
EXTT13=
EXTT14=
EXTT15=
EXTT16=
EXTT17=
EXTT18=
EXTT19=
EXTT20=
EXTT21=
EXTT22=
EXTT23=
EXTT24=
EXTT25=
PLAYORDER=
